# xmcd CD database file
#
# Track frame offsets:
#	150
#	23357
#	42677
#	60772
#	78497
#	99620
#	118612
#	135365
#	153522
#	173385
#	194662
#	210457
#	235532
#	255092
#	272947
#	292412
#
# Disc length: 4460 seconds
#
# Revision: 0
# Processed by: cddbd v1.5.2PL0 Copyright (c) Steve Scherf et al.
# Submitted via: Feurio! 1.68 - http://www.feurio.com
#
DISCID=d2116a10
DTITLE=Joe Cocker - The  Essential   1995
DYEAR=1900
DGENRE=
TTITLE0=01  Joe Cocker - Unchain My Heart
TTITLE1=02  Joe Cocker - Yuo Can Leave Your Hat On
TTITLE2=03  Joe Cocker - When The Night Comes
TTITLE3=04  Loe Cocker - Up Where We Belong
TTITLE4=05  Joe Cocker - Now That The Magic Has Gone
TTITLE5=06  Joe Cocker - Don`t You Love Me Anymore
TTITLE6=07  Joe Cocker - I Can Hear The River
TTITLE7=08  Joe Cocker - Sorry Seems to Be THE Hardest Word
TTITLE8=09  Joe Cocker - Shelter
TTITLE9=10  Joe Cocker - (All I Know) Feels Like Forever
TTITLE10=11  Joe Cocker - Night Calls
TTITLE11=12  Joe  Cocker - Don`t Let The Sun Go Down On Me
TTITLE12=13  Joe Cocker - Now That Youre Gone
TTITLE13=14  Joe  Cocker - Civilized Man
TTITLE14=15  Joe Cocker - When A Woman Cries
TTITLE15=16  Joe Cocker - With A Little Help From My Friends
EXTD=
EXTT0=
EXTT1=
EXTT2=
EXTT3=
EXTT4=
EXTT5=
EXTT6=
EXTT7=
EXTT8=
EXTT9=
EXTT10=
EXTT11=
EXTT12=
EXTT13=
EXTT14=
EXTT15=
PLAYORDER=
